<?xml version="1.0" standalone="no"?>
<!DOCTYPE svg PUBLIC "-//W3C//DTD SVG 20010904//EN"
 "http://www.w3.org/TR/2001/REC-SVG-20010904/DTD/svg10.dtd">
<svg version="1.0" xmlns="http://www.w3.org/2000/svg"
 width="946.000000pt" height="946.000000pt" viewBox="0 0 946.000000 946.000000"
 preserveAspectRatio="xMidYMid meet">
<metadata>
Created by potrace 1.14, written by Peter Selinger 2001-2017
</metadata>
<g transform="translate(0.000000,946.000000) scale(0.100000,-0.100000)"
fill="#000000" stroke="none">
<path d="M4625 8266 c-49 -30 -142 -85 -205 -122 -63 -37 -117 -71 -120 -74
-3 -4 -10 -9 -15 -11 -23 -9 -160 -94 -163 -101 -2 -5 -7 -8 -12 -8 -8 0 -161
-90 -170 -100 -3 -3 -16 -11 -30 -18 -14 -7 -37 -20 -52 -30 -15 -9 -69 -41
-120 -71 -51 -30 -95 -57 -98 -61 -3 -3 -43 -28 -90 -55 -47 -27 -87 -52 -90
-56 -3 -3 -10 -8 -15 -10 -14 -6 -159 -92 -165 -99 -3 -3 -16 -11 -29 -18 -13
-8 -39 -23 -58 -33 -42 -24 -86 -52 -93 -59 -3 -3 -16 -11 -30 -18 -14 -6 -32
-16 -40 -22 -14 -10 -118 -73 -335 -203 -231 -139 -281 -171 -297 -185 -17
-14 -18 -65 -20 -736 l-3 -720 -1172 -551 c-645 -302 -1172 -553 -1173 -556 0
-4 124 -64 275 -135 151 -70 275 -131 275 -134 0 -4 -124 -64 -275 -135 -151
-71 -275 -131 -275 -135 0 -3 115 -59 255 -125 141 -65 252 -122 248 -126 -4
-4 -118 -60 -253 -123 -135 -64 -246 -119 -247 -123 -1 -5 449 -217 1000 -473
918 -425 1804 -837 3183 -1479 l521 -242 1289 599 c709 330 1334 621 1389 647
55 26 532 247 1060 492 528 245 963 448 967 452 4 4 -106 60 -245 125 -138 65
-255 121 -259 125 -4 4 107 60 247 125 140 65 255 122 255 126 0 4 -124 66
-275 136 -151 71 -275 131 -275 134 0 3 126 63 281 135 206 95 277 132 266
139 -8 5 -547 260 -1198 566 l-1184 556 -3 720 -2 720 -55 29 c-30 17 -55 33
-55 36 0 4 -8 9 -17 13 -10 3 -49 26 -88 50 -38 25 -83 52 -100 61 -16 8 -42
23 -56 32 -15 10 -57 36 -94 58 -37 22 -77 47 -90 55 -20 13 -61 38 -239 145
-19 11 -60 35 -92 54 -33 19 -60 38 -62 43 -2 4 -10 8 -17 8 -8 0 -20 6 -27
13 -7 7 -55 37 -107 67 -51 30 -103 62 -116 70 -12 8 -53 33 -90 55 -37 22
-77 47 -90 55 -13 8 -72 44 -132 80 -59 35 -115 69 -125 75 -9 5 -58 35 -108
65 -51 30 -102 62 -115 70 -13 8 -52 32 -87 53 -34 21 -106 65 -158 98 -52 32
-102 62 -110 66 -8 3 -26 14 -40 23 -49 34 -61 32 -155 -24z m3525 -3426 c564
-265 1028 -485 1033 -489 4 -4 -91 -53 -212 -109 l-219 -101 -714 335 c-392
185 -774 364 -848 399 l-135 64 -3 211 -2 211 37 -20 c21 -10 499 -236 1063
-501z m-5770 285 l0 -205 -82 -39 c-46 -21 -419 -196 -830 -389 l-746 -351
-221 102 c-141 65 -217 105 -209 110 22 14 2073 977 2081 977 4 0 7 -92 7
-205z m5558 -722 c369 -174 672 -319 672 -323 0 -3 -86 -46 -191 -95 -166 -77
-195 -87 -218 -78 -14 5 -279 128 -588 274 l-563 264 0 187 0 187 108 -50 c59
-28 410 -192 780 -366z m-5558 210 l0 -188 -559 -263 c-308 -145 -567 -262
-575 -260 -23 5 -386 172 -386 178 0 4 1499 714 1518 719 1 1 2 -83 2 -186z
m5053 -469 c204 -97 435 -205 512 -241 77 -36 141 -67 143 -68 3 -2 -53 -28
-1478 -690 -553 -257 -1197 -557 -1432 -666 -235 -109 -433 -199 -441 -199
-11 0 -1919 883 -2430 1124 -54 25 -279 130 -500 232 -221 103 -406 190 -410
194 -6 5 890 436 974 468 5 2 9 -25 9 -60 0 -60 2 -64 33 -84 81 -54 148 -94
156 -94 5 0 11 -4 13 -8 2 -5 44 -32 93 -61 50 -29 133 -79 185 -112 52 -32
104 -64 115 -69 24 -13 70 -41 167 -100 40 -25 81 -49 90 -55 9 -5 50 -30 90
-55 40 -25 80 -48 88 -53 8 -4 58 -34 110 -66 88 -55 276 -170 355 -216 18
-11 67 -40 107 -65 40 -25 80 -49 88 -53 8 -4 58 -34 110 -67 52 -32 135 -83
184 -112 48 -29 99 -60 112 -68 20 -13 57 -35 214 -128 l35 -21 63 39 c35 22
67 40 72 40 4 0 10 4 12 8 2 4 57 39 123 77 66 38 122 73 123 77 2 4 7 8 11 8
4 0 59 31 122 69 63 38 155 94 204 124 50 30 140 84 200 122 61 37 152 93 203
124 116 69 111 67 202 121 41 24 77 47 80 50 3 3 16 11 30 18 14 7 68 39 120
72 52 32 136 83 185 113 50 30 140 84 200 122 61 37 153 93 205 123 52 31 97
59 100 63 3 3 20 14 38 23 l32 17 0 79 c0 44 2 80 5 80 3 0 173 -79 378 -176z
m-6512 -216 c109 -51 195 -95 191 -98 -15 -13 -421 -200 -434 -200 -17 0 -388
172 -388 180 0 5 411 205 429 209 2 1 93 -40 202 -91z m8054 -13 c118 -55 214
-102 214 -105 0 -3 -88 -46 -196 -96 l-197 -91 -223 105 -223 105 198 93 c108
51 200 92 204 91 4 -1 104 -47 223 -102z m-7232 -369 c265 -123 532 -248 592
-276 103 -48 2103 -979 2299 -1069 49 -23 95 -41 103 -41 18 0 37 8 1488 684
682 318 1410 657 1618 753 l377 176 220 -103 c121 -57 217 -107 213 -111 -5
-3 -291 -138 -638 -299 -346 -161 -1055 -491 -1575 -733 -1521 -708 -1692
-787 -1702 -787 -8 0 -1035 476 -3135 1453 -408 190 -753 352 -767 359 -25 13
-18 17 192 116 119 56 220 102 225 102 4 0 224 -101 490 -224z m-234 -430
c454 -212 1359 -633 2011 -937 652 -303 1194 -554 1206 -556 13 -3 281 116
740 330 395 184 971 452 1279 595 308 143 605 281 660 307 55 26 390 182 744
347 624 290 645 299 675 287 98 -41 360 -170 356 -177 -2 -4 -479 -228 -1060
-498 -580 -270 -1540 -717 -2132 -992 -592 -276 -1116 -520 -1164 -542 l-88
-41 -1186 552 c-2442 1137 -3245 1511 -3258 1518 -8 4 64 43 180 98 106 50
197 92 202 92 5 1 381 -172 835 -383z"/>
</g>
</svg>
